<?xml version="1.0" ?><svg viewBox="0 0 512 512" xmlns="http://www.w3.org/2000/svg"><g id="Blood_Pressure"><rect height="12.9998" transform="translate(-126.7092 178.8177) rotate(-46.4123)" width="30.009" x="130.1854" y="230.6825"/><path d="M128.3447,91.4087v104.83a52.2161,52.2161,0,0,0,0,103.6235v40.6734H259.6484v13.9472l.0088.33a69.3372,69.3372,0,0,0,138.583-3.5586V279.6787h18.2119l-7.625-27.3306c12.5987-8.0493,20.5586-24.2666,20.5586-42.476,0-26.2622-16.8877-47.6284-37.6455-47.6284s-37.6455,21.3662-37.6455,47.6284c0,18.2094,7.96,34.4267,20.5586,42.476l-7.625,27.3306H385.24v71.5752a56.3375,56.3375,0,0,1-112.5918,3.0591V340.5352H317.16V91.4087ZM187.0757,248.05a52.2975,52.2975,0,0,0-45.731-51.812v-91.83h106.93A28.9472,28.9472,0,0,1,277.19,133.3232V298.6206a28.9472,28.9472,0,0,1-28.9146,28.9146h-106.93V299.8618A52.2973,52.2973,0,0,0,187.0757,248.05Zm-91.4614,0a39.2307,39.2307,0,1,1,39.23,39.2305A39.2752,39.2752,0,0,1,95.6143,248.05Z"/></g></svg>